<svg xmlns="http://www.w3.org/2000/svg" width="500" height="94" viewBox="0 0 500 94"><path d="M465.6 75.4h-16.3v-53h16.3c17.9 0 26.4 12.9 26.7 25.9.2 13.1-8.3 27.1-26.7 27.1m31.5-27.3c-.4-15.2-10.5-30.3-31.5-30.3h-21v62.1h21c21.8.1 31.9-15.9 31.5-31.8zm-70.5-30.2h4.8V80h-4.8zm-25.2 29c-1.4 1.4-1.4 3.9 0 5.3s3.9 1.4 5.3 0 1.4-3.9 0-5.3c-1.6-1.6-3.9-1.6-5.3 0m-31.8 9.5l-30.5-38.5h-9.5V80h11.8V38l32.8 42h7.1V17.7h-11.7v38.7M288.4 70.7c-14.7 0-20.1-10.8-20.5-21.2-.4-10.5 5.8-22.3 20.5-22.3s20.5 11.7 20.3 22.3c-.2 10.1-5.8 21.2-20.3 21.2m0-54.1c-21.6 0-32 16.4-32 32.7s10.1 32 32 32 31.7-16.1 31.8-32.2c.2-16-10.5-32.5-31.8-32.5zm-53.8 1.3h11.5V80h-11.5zM223.5 80V17.9h-11.7v26.2h-30.6V17.9h-11.5V80h11.5V55h30.6v25h11.7m-64.9-52c-4.8-9.6-14.7-12.4-24.4-12.4-11.3.2-24 5.3-24 18 0 14 11.7 17.3 24.4 18.9 8.3.9 14.3 3.3 14.3 9.1 0 6.9-7 9.2-14.3 9.2-7.6 0-14.7-3-17.5-9.8l-9.8 5.1c4.8 11.5 14.5 15.4 27.1 15.4 13.8 0 26-6 26-19.8 0-14.9-12-18.2-25-19.8-7.6-.9-13.8-2.5-13.8-7.9 0-4.6 4.2-8.3 12.9-8.3 6.9 0 12.6 3.3 14.7 7l9.4-4.7M60.6 57.4l11.5-26.6 11.6 26.4H60.6m18.1-39.3H65.9L37.9 80h12.8L56 68.3h32.5L93.7 80h12.8L78.7 17.9zm-26.2 0H1V80h11.7V57h22.4l4.8-10.8H12.7v-17h34.7l5.1-11.3"/></svg>